<svg height="926" width="720" xmlns="http://www.w3.org/2000/svg">
<rect height="926" fill="#555" width="720"></rect>
<text fill="#7f7" font-family="Courier New" font-size="12" xml:space="preserve">
<tspan x="10" y="26">10 megabytes installed</tspan>
<tspan x="10" y="42"></tspan>
<tspan x="10" y="58">node_modules</tspan>
<tspan x="10" y="74">└─┬ js-crawler@0.3.18 </tspan>
<tspan x="10" y="90">  ├─┬ request@2.55.0 </tspan>
<tspan x="10" y="106">  │ ├── aws-sign2@0.5.0 </tspan>
<tspan x="10" y="122">  │ ├─┬ bl@0.9.5 </tspan>
<tspan x="10" y="138">  │ │ └─┬ readable-stream@1.0.34 </tspan>
<tspan x="10" y="154">  │ │   ├── core-util-is@1.0.2 </tspan>
<tspan x="10" y="170">  │ │   ├── inherits@2.0.3 </tspan>
<tspan x="10" y="186">  │ │   ├── isarray@0.0.1 </tspan>
<tspan x="10" y="202">  │ │   └── string_decoder@0.10.31 </tspan>
<tspan x="10" y="218">  │ ├── caseless@0.9.0 </tspan>
<tspan x="10" y="234">  │ ├─┬ combined-stream@0.0.7 </tspan>
<tspan x="10" y="250">  │ │ └── delayed-stream@0.0.5 </tspan>
<tspan x="10" y="266">  │ ├── forever-agent@0.6.1 </tspan>
<tspan x="10" y="282">  │ ├─┬ form-data@0.2.0 </tspan>
<tspan x="10" y="298">  │ │ └── async@0.9.2 </tspan>
<tspan x="10" y="314">  │ ├─┬ har-validator@1.8.0 </tspan>
<tspan x="10" y="330">  │ │ ├── bluebird@2.11.0 </tspan>
<tspan x="10" y="346">  │ │ ├─┬ chalk@1.1.3 </tspan>
<tspan x="10" y="362">  │ │ │ ├── ansi-styles@2.2.1 </tspan>
<tspan x="10" y="378">  │ │ │ ├── escape-string-regexp@1.0.5 </tspan>
<tspan x="10" y="394">  │ │ │ ├─┬ has-ansi@2.0.0 </tspan>
<tspan x="10" y="410">  │ │ │ │ └── ansi-regex@2.1.1 </tspan>
<tspan x="10" y="426">  │ │ │ ├── strip-ansi@3.0.1 </tspan>
<tspan x="10" y="442">  │ │ │ └── supports-color@2.0.0 </tspan>
<tspan x="10" y="458">  │ │ ├─┬ commander@2.9.0 </tspan>
<tspan x="10" y="474">  │ │ │ └── graceful-readlink@1.0.1 </tspan>
<tspan x="10" y="490">  │ │ └─┬ is-my-json-valid@2.16.0 </tspan>
<tspan x="10" y="506">  │ │   ├── generate-function@2.0.0 </tspan>
<tspan x="10" y="522">  │ │   ├─┬ generate-object-property@1.2.0 </tspan>
<tspan x="10" y="538">  │ │   │ └── is-property@1.0.2 </tspan>
<tspan x="10" y="554">  │ │   ├── jsonpointer@4.0.1 </tspan>
<tspan x="10" y="570">  │ │   └── xtend@4.0.1 </tspan>
<tspan x="10" y="586">  │ ├─┬ hawk@2.3.1 </tspan>
<tspan x="10" y="602">  │ │ ├── boom@2.10.1 </tspan>
<tspan x="10" y="618">  │ │ ├── cryptiles@2.0.5 </tspan>
<tspan x="10" y="634">  │ │ ├── hoek@2.16.3 </tspan>
<tspan x="10" y="650">  │ │ └── sntp@1.0.9 </tspan>
<tspan x="10" y="666">  │ ├─┬ http-signature@0.10.1 </tspan>
<tspan x="10" y="682">  │ │ ├── asn1@0.1.11 </tspan>
<tspan x="10" y="698">  │ │ ├── assert-plus@0.1.5 </tspan>
<tspan x="10" y="714">  │ │ └── ctype@0.5.3 </tspan>
<tspan x="10" y="730">  │ ├── isstream@0.1.2 </tspan>
<tspan x="10" y="746">  │ ├── json-stringify-safe@5.0.1 </tspan>
<tspan x="10" y="762">  │ ├─┬ mime-types@2.0.14 </tspan>
<tspan x="10" y="778">  │ │ └── mime-db@1.12.0 </tspan>
<tspan x="10" y="794">  │ ├── node-uuid@1.4.8 </tspan>
<tspan x="10" y="810">  │ ├── oauth-sign@0.6.0 </tspan>
<tspan x="10" y="826">  │ ├── qs@2.4.2 </tspan>
<tspan x="10" y="842">  │ ├── stringstream@0.0.5 </tspan>
<tspan x="10" y="858">  │ ├─┬ tough-cookie@2.3.2 </tspan>
<tspan x="10" y="874">  │ │ └── punycode@1.4.1 </tspan>
<tspan x="10" y="890">  │ └── tunnel-agent@0.4.3 </tspan>
<tspan x="10" y="906">  └── underscore@1.8.3</tspan>
</text>
</svg>
